<svg xmlns="http://www.w3.org/2000/svg" viewBox="0 0 32 32" fill="none">
  <defs>
    <linearGradient id="sg" x1="6" y1="3" x2="26" y2="29" gradientUnits="userSpaceOnUse">
      <stop offset="0%" stop-color="#3B82F6"/>
      <stop offset="100%" stop-color="#8B5CF6"/>
    </linearGradient>
    <linearGradient id="sf" x1="6" y1="3" x2="26" y2="29" gradientUnits="userSpaceOnUse">
      <stop offset="0%" stop-color="#2563EB" stop-opacity="0.2"/>
      <stop offset="100%" stop-color="#7C3AED" stop-opacity="0.2"/>
    </linearGradient>
  </defs>
  <!-- Shield -->
  <path d="M16 3 L26 7.5 L26 18 Q26 25 16 29 Q6 25 6 18 L6 7.5 Z"
        fill="url(#sf)"/>
  <path d="M16 3 L26 7.5 L26 18 Q26 25 16 29 Q6 25 6 18 L6 7.5 Z"
        stroke="url(#sg)" stroke-width="1.2" stroke-linejoin="round"/>
  <!-- Bars -->
  <rect x="10" y="17" width="2.5" height="5" rx="0.8" fill="#60A5FA"/>
  <rect x="13.5" y="14" width="2.5" height="8" rx="0.8" fill="#818CF8"/>
  <rect x="17" y="11" width="2.5" height="11" rx="0.8" fill="#A78BFA"/>
  <rect x="20.5" y="15" width="2.5" height="7" rx="0.8" fill="#8B5CF6"/>
  <!-- Threshold line -->
  <line x1="9" y1="16" x2="24" y2="16" stroke="#F59E0B" stroke-width="0.8" stroke-dasharray="2,1.5" opacity="0.85"/>
</svg>
