<svg xmlns="http://www.w3.org/2000/svg" viewBox="0 0 200 200" fill="none">
  <defs>
    <linearGradient id="fill" x1="0" y1="0" x2="1" y2="1" gradientUnits="objectBoundingBox">
      <stop offset="0%"   stop-color="#EFF6FF"/>
      <stop offset="100%" stop-color="#F5F3FF"/>
    </linearGradient>
    <linearGradient id="inner" x1="0" y1="0" x2="0" y2="1" gradientUnits="objectBoundingBox">
      <stop offset="0%"   stop-color="#2563EB" stop-opacity="0.06"/>
      <stop offset="100%" stop-color="#7C3AED" stop-opacity="0.02"/>
    </linearGradient>
    <linearGradient id="border" x1="0" y1="0" x2="1" y2="1" gradientUnits="objectBoundingBox">
      <stop offset="0%"   stop-color="#1D4ED8"/>
      <stop offset="100%" stop-color="#6D28D9"/>
    </linearGradient>
    <linearGradient id="b1" x1="0" y1="0" x2="0" y2="1" gradientUnits="objectBoundingBox">
      <stop offset="0%"   stop-color="#3B82F6"/><stop offset="100%" stop-color="#1D4ED8"/>
    </linearGradient>
    <linearGradient id="b2" x1="0" y1="0" x2="0" y2="1" gradientUnits="objectBoundingBox">
      <stop offset="0%"   stop-color="#6366F1"/><stop offset="100%" stop-color="#4338CA"/>
    </linearGradient>
    <linearGradient id="b3" x1="0" y1="0" x2="0" y2="1" gradientUnits="objectBoundingBox">
      <stop offset="0%"   stop-color="#8B5CF6"/><stop offset="100%" stop-color="#6D28D9"/>
    </linearGradient>
    <linearGradient id="b4" x1="0" y1="0" x2="0" y2="1" gradientUnits="objectBoundingBox">
      <stop offset="0%"   stop-color="#7C3AED"/><stop offset="100%" stop-color="#5B21B6"/>
    </linearGradient>
  </defs>

  <path d="M100 18 L163 45 L163 113 Q163 158 100 182 Q37 158 37 113 L37 45 Z" fill="url(#fill)"/>
  <path d="M100 18 L163 45 L163 113 Q163 158 100 182 Q37 158 37 113 L37 45 Z" fill="url(#inner)"/>
  <path d="M100 18 L163 45 L163 113 Q163 158 100 182 Q37 158 37 113 L37 45 Z"
        stroke="url(#border)" stroke-width="2.5" stroke-linejoin="round"/>
  <path d="M100 31 L152 54 L152 113 Q152 149 100 168 Q48 149 48 113 L48 54 Z"
        stroke="url(#border)" stroke-width="0.5" opacity="0.2"/>

  <line x1="15" y1="78"  x2="66" y2="78"  stroke="#2563EB" stroke-width="2"   stroke-linecap="round"/>
  <polygon points="70,78 64,74.5 64,81.5"  fill="#2563EB"/>
  <line x1="11" y1="94"  x2="66" y2="94"  stroke="#4338CA" stroke-width="1.6" stroke-linecap="round" opacity="0.85"/>
  <polygon points="70,94 64,90.5 64,97.5"  fill="#4338CA" opacity="0.85"/>
  <line x1="15" y1="110" x2="66" y2="110" stroke="#6D28D9" stroke-width="1.1" stroke-linecap="round" opacity="0.65"/>
  <polygon points="70,110 64,106.5 64,113.5" fill="#6D28D9" opacity="0.65"/>

  <rect x="77"  y="120" width="12" height="32" rx="2.5" fill="url(#b1)"/>
  <rect x="94"  y="103" width="12" height="49" rx="2.5" fill="url(#b2)"/>
  <rect x="111" y="88"  width="12" height="64" rx="2.5" fill="url(#b3)"/>
  <rect x="128" y="110" width="12" height="42" rx="2.5" fill="url(#b4)"/>

  <line x1="75" y1="110" x2="142" y2="110"
        stroke="#D97706" stroke-width="1.4" stroke-dasharray="3.8,2.6" opacity="0.9"/>
  <circle cx="117" cy="109.5" r="3.2" fill="#D97706" opacity="0.9"/>
</svg>
